<?xml version="1.0" standalone="no"?>
<!DOCTYPE svg PUBLIC "-//W3C//DTD SVG 20010904//EN"
 "http://www.w3.org/TR/2001/REC-SVG-20010904/DTD/svg10.dtd">
<svg version="1.0" xmlns="http://www.w3.org/2000/svg"
 width="300.000000pt" height="300.000000pt" viewBox="0 0 300.000000 300.000000"
 preserveAspectRatio="xMidYMid meet">
<metadata>
Created by potrace 1.14, written by Peter Selinger 2001-2017
</metadata>
<g transform="translate(0.000000,300.000000) scale(0.100000,-0.100000)"
fill="#000000" stroke="none">
<path d="M1420 2190 l0 -59 -42 -11 c-58 -15 -112 -39 -150 -67 l-32 -23 293
0 c258 0 292 2 281 15 -19 23 -111 64 -160 73 l-45 7 -3 63 -3 62 -69 0 -70 0
0 -60z"/>
<path d="M1116 1743 c12 -54 46 -113 82 -144 48 -39 153 -88 277 -129 178 -59
242 -104 266 -192 33 -123 -41 -224 -179 -248 -139 -23 -242 23 -298 132 -13
26 -24 54 -24 63 0 12 -15 15 -81 15 l-82 0 7 -42 c10 -68 62 -163 109 -201
56 -46 95 -65 164 -80 l58 -14 3 -81 3 -82 69 0 70 0 0 80 c0 79 0 80 28 85
86 18 118 28 146 42 62 31 115 83 143 141 25 51 28 67 28 157 -1 85 -4 107
-24 145 -53 102 -135 156 -336 220 -154 48 -222 83 -250 127 -20 32 -21 32
-103 33 l-82 0 6 -27z"/>
</g>
</svg>
